<svg width="82" height="36" viewBox="0 0 82 36" fill="none" xmlns="http://www.w3.org/2000/svg">
<g clip-path="url(#clip0_1_4)">
<path d="M29.7518 20.6298C29.7518 21.4008 29.0702 21.8538 27.9348 21.8538C26.5199 21.809 25.1672 21.2626 24.1194 20.3124L24.0737 20.358V20.3124C23.0748 21.219 22.166 21.8088 20.7127 21.8088C18.5327 21.8088 17.0336 19.995 17.0336 17.8188V17.7732C17.0336 15.597 18.5777 13.8288 20.7127 13.8288C21.5392 13.8396 22.3445 14.0918 23.0291 14.5542C22.9895 14.748 22.9742 14.9459 22.9834 15.1434V15.189C22.9834 17.7282 24.6182 18.408 27.2076 19.089C29.3407 19.587 29.7518 19.9494 29.7518 20.6298ZM36.0628 0V36H0V0H36.0628ZM32.5202 20.403C32.5202 18.183 31.0669 17.2746 28.4782 16.5942C26.2982 16.05 25.753 15.7782 25.753 14.9142V14.8686C25.753 14.2338 26.2982 13.7802 27.3879 13.7802C28.5961 13.8594 29.752 14.302 30.7032 15.0498L32.156 12.9672C30.8198 11.8908 29.1492 11.3137 27.4323 11.3352C26.3591 11.2851 25.3011 11.6045 24.4355 12.24C23.3044 11.5873 22.0152 11.2579 20.709 11.2878C19.0952 11.2596 17.5273 11.8244 16.3034 12.8748V11.5164H13.5326V19.3164L7.63329 11.4708H5.04157V24.1662H7.8136V16.0956L13.9893 24.1662H16.3485V22.8516C17.5355 23.8669 19.0529 24.415 20.6159 24.393C21.874 24.438 23.1189 24.1235 24.2041 23.4864C25.3452 24.0646 26.609 24.3599 27.8885 24.3474C30.6137 24.3474 32.5665 22.9416 32.5214 20.403H32.5202ZM42.4669 0.6348H41.1951V35.3652H42.4669V0.6348ZM47.8715 2.22H46.9177V9.384H47.8715V4.7154L48.9161 7.98V9.3858H49.87V2.22H48.9161V5.6676L47.8715 2.22ZM52.4587 9.384V2.22H51.5054V9.384H52.4587ZM56.3192 5.664C56.51 5.64678 56.6869 5.55727 56.8135 5.41386C56.9402 5.27046 57.007 5.08407 57.0002 4.893V3.5364C57.0002 2.6748 56.5915 2.2218 55.7284 2.2218H54.0942V9.3858H56.047C56.1722 9.40394 56.2999 9.39721 56.4226 9.36598C56.5453 9.33476 56.6606 9.27966 56.7619 9.20384C56.8632 9.12803 56.9485 9.03299 57.0129 8.92419C57.0773 8.81538 57.1196 8.69495 57.1373 8.5698V6.4836C57.1373 6.0756 56.865 5.8032 56.3649 5.6676H56.318L56.3192 5.664ZM55.048 3.0834H55.6382C55.9105 3.0834 56.047 3.2634 56.047 3.582V4.7154C56.047 5.0754 55.8666 5.214 55.5018 5.214H55.0474L55.048 3.0834ZM55.048 6.1212H55.5932C55.9538 6.1212 56.1834 6.3012 56.1834 6.6198V8.2068C56.1834 8.4336 56.047 8.5242 55.8228 8.5242H55.0931V6.12L55.048 6.1212ZM60.907 5.6676C61.0979 5.65053 61.2749 5.56108 61.4017 5.41766C61.5285 5.27424 61.5954 5.08776 61.5886 4.8966V3.5364C61.5886 2.6748 61.1799 2.2218 60.3168 2.2218H58.6819V9.3858H60.6347C60.76 9.40394 60.8877 9.39721 61.0104 9.36598C61.1331 9.33476 61.2484 9.27966 61.3497 9.20384C61.451 9.12803 61.5363 9.03299 61.6007 8.92419C61.6651 8.81538 61.7074 8.69495 61.725 8.5698V6.4836C61.725 6.0756 61.4528 5.8032 60.9527 5.6676H60.907ZM59.6352 3.1284H60.2254C60.4977 3.1284 60.6341 3.3084 60.6341 3.627V4.761C60.6341 5.121 60.4538 5.2596 60.089 5.2596H59.6346L59.6352 3.1284ZM59.6352 6.1206H60.1803C60.541 6.1206 60.7706 6.3006 60.7706 6.6192V8.2062C60.7706 8.433 60.6341 8.5236 60.4099 8.5236H59.6809V6.12L59.6352 6.1206ZM65.5399 8.5236H64.223V2.22H63.2691V9.384H65.5399V8.5236ZM69.2189 9.3852V8.5242H67.8106V6.12H69.0368V5.2596H67.7649V3.0834H69.1732V2.22H66.8117V9.384L69.2189 9.3852ZM48.8254 19.68V20.088C48.8254 20.3598 48.6889 20.496 48.4648 20.496H48.2376C47.9653 20.496 47.8769 20.3598 47.8769 20.088V15.5064C47.8769 15.2346 48.0134 15.0984 48.2376 15.0984H48.4179C48.4664 15.0841 48.5177 15.0815 48.5674 15.0909C48.6171 15.1002 48.6639 15.1213 48.7039 15.1523C48.7438 15.1834 48.7758 15.2234 48.7971 15.2693C48.8185 15.3151 48.8286 15.3653 48.8266 15.4158V16.2318H49.7804V15.4158C49.7804 14.5998 49.4198 14.1918 48.6451 14.1918H48.008C47.2356 14.1918 46.8726 14.5998 46.8726 15.4158V20.1312C46.8726 20.9472 47.2332 21.3552 48.008 21.3552H48.5982C49.3705 21.3552 49.7336 20.9472 49.7336 20.1312V19.68H48.8254ZM53.2767 21.36C53.4404 21.3789 53.6062 21.3598 53.7613 21.3043C53.9163 21.2488 54.0565 21.1583 54.1707 21.0398C54.285 20.9214 54.3704 20.7782 54.4202 20.6214C54.47 20.4647 54.4828 20.2985 54.4578 20.136V15.4158C54.4578 14.5998 54.0972 14.1918 53.3224 14.1918H52.4112C51.6389 14.1918 51.2758 14.5998 51.2758 15.4158V20.1312C51.2758 20.9472 51.6365 21.3552 52.4569 21.3552L53.2767 21.36ZM52.1864 20.0904V15.5064C52.1797 15.4587 52.1827 15.4101 52.1951 15.3635C52.2076 15.3169 52.2293 15.2733 52.2589 15.2352C52.2886 15.1972 52.3256 15.1655 52.3677 15.1419C52.4099 15.1184 52.4564 15.1036 52.5044 15.0984H53.0495C53.0981 15.0841 53.1493 15.0815 53.1991 15.0909C53.2488 15.1002 53.2956 15.1213 53.3355 15.1523C53.3755 15.1834 53.4075 15.2234 53.4288 15.2693C53.4501 15.3151 53.4602 15.3653 53.4582 15.4158V20.0856C53.4582 20.3574 53.3218 20.4936 53.0976 20.4936H52.5981C52.5472 20.5051 52.4944 20.5059 52.4432 20.4959C52.3919 20.4859 52.3433 20.4652 52.3005 20.4353C52.2578 20.4055 52.2217 20.367 52.1947 20.3223C52.1677 20.2777 52.1503 20.2279 52.1438 20.1762C52.1894 20.1762 52.1894 20.1306 52.1894 20.0856L52.1864 20.0904ZM57.0916 14.196H56.047V21.36H57.0008L56.9101 16.6902L57.6367 20.091H58.3616L59.0432 16.6902L58.9524 21.36H59.9063V14.1912H58.8635L57.9547 18.408L57.0916 14.196ZM61.588 21.36H62.5419V18.771H63.3593C64.1316 18.771 64.4947 18.363 64.4947 17.547V15.4158C64.4947 14.5998 64.134 14.1918 63.3136 14.1918H61.5423L61.588 21.36ZM62.5419 15.06H63.087C63.1355 15.0457 63.1868 15.0431 63.2365 15.0525C63.2863 15.0618 63.3331 15.0829 63.373 15.1139C63.413 15.145 63.4449 15.185 63.4663 15.2309C63.4876 15.2767 63.4977 15.3269 63.4957 15.3774V17.463C63.4957 17.7348 63.3593 17.871 63.1351 17.871H62.5449V15.0528L62.5419 15.06ZM68.1286 14.1984V20.0022C68.1286 20.3196 67.9921 20.4558 67.7199 20.4558H67.3112C67.0389 20.4558 66.9024 20.3196 66.9024 20.0022V14.1912H65.9486V19.995C65.9486 20.9016 66.3092 21.3552 67.084 21.3552H67.9014C68.6737 21.3552 69.0824 20.9016 69.0824 19.995V14.1912L68.1286 14.1984ZM73.1702 15.06V14.1912H70.3993V15.0528H71.3075V21.3528H72.2614V15.0528L73.1702 15.06ZM76.8492 21.36V20.4936H75.4409V18.1362H76.7127V17.229H75.4409V15.0528H76.8492V14.1912H74.4876V21.3552L76.8492 21.36ZM78.3025 21.36H79.2563V18.4536H79.8466L80.4825 21.3552H81.3907L80.7097 18.36C81.1184 18.18 81.2999 17.8158 81.2999 17.181V15.4158C81.2999 14.5998 80.9365 14.1918 80.2096 14.1918H78.3464L78.3025 21.36ZM79.2563 15.06H79.8923C80.1645 15.06 80.301 15.24 80.301 15.5586V17.1C80.301 17.46 80.1645 17.5986 79.8923 17.5986H79.2563V15.06ZM49.6885 28.1106V27.3852C49.6885 26.5692 49.3279 26.1612 48.5531 26.1612H47.9635C47.1911 26.1612 46.8281 26.5692 46.8281 27.3852V28.836C46.8207 28.9886 46.8361 29.1415 46.8738 29.2896C46.9195 29.3802 46.9645 29.5164 47.0541 29.5614C47.1994 29.6619 47.3512 29.7527 47.5085 29.8332L48.4167 30.3318C48.5074 30.3774 48.597 30.468 48.6889 30.5118C48.7392 30.5945 48.7703 30.6874 48.7797 30.7836V32.0076C48.7797 32.2794 48.6433 32.4156 48.4191 32.4156H48.2388C48.1902 32.4299 48.139 32.4325 48.0892 32.4231C48.0395 32.4138 47.9927 32.3927 47.9528 32.3617C47.9128 32.3306 47.8808 32.2906 47.8595 32.2447C47.8382 32.1989 47.8281 32.1487 47.8301 32.0982V31.602H46.7818V31.962C46.7818 32.8236 47.1425 33.2766 47.9172 33.2766H48.5074C48.6711 33.2955 48.8369 33.2764 48.992 33.2209C49.147 33.1654 49.2871 33.0749 49.4014 32.9564C49.5157 32.838 49.6011 32.6948 49.6509 32.538C49.7007 32.3813 49.7135 32.2151 49.6885 32.0526V30.5592C49.7067 30.3878 49.6752 30.2147 49.5977 30.0606C49.5491 29.9766 49.4883 29.9002 49.4174 29.8338L49.0087 29.562L48.1005 29.0634C48.0098 29.0178 47.9202 28.9272 47.8282 28.8834C47.7779 28.8007 47.7469 28.7079 47.7375 28.6116V27.4308C47.7375 27.159 47.8739 26.9772 48.1462 26.9772H48.2826C48.3309 26.9671 48.3807 26.9677 48.4287 26.9788C48.4767 26.9899 48.5217 27.0113 48.5606 27.0415C48.5995 27.0717 48.6313 27.11 48.6539 27.1537C48.6765 27.1974 48.6893 27.2455 48.6913 27.2946V28.1106H49.6885ZM53.2311 33.3702C53.3947 33.3891 53.5605 33.37 53.7156 33.3145C53.8706 33.259 54.0108 33.1685 54.1251 33.05C54.2393 32.9316 54.3247 32.7884 54.3745 32.6316C54.4243 32.4749 54.4372 32.3087 54.4121 32.1462V27.3852C54.4121 26.5692 54.0515 26.1612 53.2767 26.1612H52.3679C51.5956 26.1612 51.2326 26.5692 51.2326 27.3852V32.1C51.2075 32.2625 51.2204 32.4287 51.2702 32.5854C51.32 32.7422 51.4053 32.8854 51.5196 33.0038C51.6339 33.1223 51.774 33.2128 51.9291 33.2683C52.0842 33.3238 52.25 33.3429 52.4136 33.324L53.2311 33.3702ZM52.1408 32.0556V27.4758C52.134 27.4281 52.137 27.3795 52.1494 27.3329C52.1619 27.2863 52.1836 27.2427 52.2132 27.2046C52.2429 27.1666 52.2799 27.1349 52.3221 27.1113C52.3642 27.0878 52.4107 27.073 52.4587 27.0678H53.0039C53.0524 27.0535 53.1036 27.0509 53.1534 27.0603C53.2031 27.0696 53.2499 27.0907 53.2899 27.1217C53.3298 27.1528 53.3618 27.1928 53.3831 27.2387C53.4045 27.2845 53.4146 27.3347 53.4126 27.3852V32.055C53.4126 32.3268 53.2761 32.463 53.0519 32.463H52.5525C52.5039 32.4773 52.4527 32.4799 52.4029 32.4706C52.3532 32.4612 52.3064 32.4401 52.2665 32.4091C52.2265 32.378 52.1945 32.338 52.1732 32.2921C52.1519 32.2463 52.1418 32.1961 52.1438 32.1456C52.1438 32.1 52.1438 32.1 52.1438 32.055L52.1408 32.0556ZM57.9108 31.6956V32.1036C57.9108 32.3754 57.7744 32.5116 57.5502 32.5116H57.323C57.0507 32.5116 56.9623 32.3754 56.9623 32.1036V27.4758C56.9623 27.204 57.0988 27.0678 57.323 27.0678H57.5033C57.5518 27.0535 57.6031 27.0509 57.6528 27.0603C57.7026 27.0696 57.7493 27.0907 57.7893 27.1217C57.8292 27.1528 57.8612 27.1928 57.8825 27.2387C57.9039 27.2845 57.914 27.3347 57.912 27.3852V28.2H58.8659V27.384C58.8659 26.568 58.5052 26.16 57.7305 26.16H57.0916C56.3192 26.16 55.9562 26.568 55.9562 27.384V32.1C55.9562 32.916 56.3168 33.324 57.0916 33.324H57.7275C58.4998 33.324 58.8629 32.916 58.8629 32.1V31.6464L57.9108 31.6956ZM61.3175 33.3756V26.16H60.3637V33.324L61.3175 33.3756ZM65.3596 33.3756V32.5086H63.9513V30.1056H65.2231V29.2446H63.9513V27.0678H65.3596V26.2068H62.9981V33.3708L65.3596 33.3756ZM69.2664 27.0756V26.16H66.4505V27.0216H67.3586V33.3216H68.3125V27.0216L69.2664 27.0756ZM72.3551 30.7026L73.5362 26.1684H72.5823L71.9452 29.2896H71.8995L71.1717 26.16H70.2178L71.3989 30.6942V33.324H72.3527L72.3551 30.7026Z" fill="white"/>
</g>
<defs>
<clipPath id="clip0_1_4">
<rect width="81.3913" height="36" fill="white"/>
</clipPath>
</defs>
</svg>
